<svg id="Laag_1" data-name="Laag 1" xmlns="http://www.w3.org/2000/svg" viewBox="0 0 15.93253 16"><defs><style>.cls-1{fill:#1d1d1b;}</style></defs><path class="cls-1" d="M1.69361,3.28539A1.6427,1.6427,0,1,1,3.3363,1.64269,1.64415,1.64415,0,0,1,1.69361,3.28539Zm0-2.97133A1.32863,1.32863,0,1,0,3.02224,1.64269,1.32988,1.32988,0,0,0,1.69361.31406Z" transform="translate(-0.03374)"/><path class="cls-1" d="M14.11747,3.28539a1.6427,1.6427,0,1,1,1.64269-1.6427A1.64468,1.64468,0,0,1,14.11747,3.28539Zm0-2.97133A1.32863,1.32863,0,1,0,15.4461,1.64269,1.3304,1.3304,0,0,0,14.11747.31406Z" transform="translate(-0.03374)"/><path class="cls-1" d="M15.80923,16H.19077a.157.157,0,0,1,0-.31406H3.20564A.76029.76029,0,0,0,3.681,15.497a.48091.48091,0,0,0,.12023-.368.56368.56368,0,0,0-.6177-.53366H2.61187a.15694.15694,0,0,1-.157-.157V7.01856a.157.157,0,1,1,.31406,0v7.26269h.41037a.86837.86837,0,0,1,.936.8379.798.798,0,0,1-.18157.56679H15.80923a.157.157,0,1,1,0,.31406Z" transform="translate(-0.03374)"/><path class="cls-1" d="M4.45514,15.55222a.15692.15692,0,0,1-.05029-.30548l1.24336-.422a.15674.15674,0,1,1,.1006.29689l-1.24337.422A.1447.1447,0,0,1,4.45514,15.55222Z" transform="translate(-0.03374)"/><path class="cls-1" d="M5.69851,15.13019a.15734.15734,0,0,1-.05275-.30547.75723.75723,0,0,0,.39074-.33246.48381.48381,0,0,0-.00368-.38767.15694.15694,0,0,1,.09078-.20243.1607.1607,0,0,1,.20242.092.7918.7918,0,0,1-.0049.63181,1.08125,1.08125,0,0,1-.57047.49563A.15494.15494,0,0,1,5.69851,15.13019Z" transform="translate(-0.03374)"/><path class="cls-1" d="M6.17942,14.20641a.156.156,0,0,1-.1466-.10182.56626.56626,0,0,0-.75694-.30548.15908.15908,0,0,1-.2012-.092.15724.15724,0,0,1,.0914-.20242.865.865,0,0,1,1.15994.48949.15643.15643,0,0,1-.09078.20243A.17844.17844,0,0,1,6.17942,14.20641Z" transform="translate(-0.03374)"/><path class="cls-1" d="M4.76185,13.97332a.157.157,0,0,1-.14477-.09569L3.37924,10.96642a.15722.15722,0,1,1,.28952-.12268l1.179,2.7738.32327-.11409a.15673.15673,0,1,1,.10059.29689l-.45514.16316A.1708.1708,0,0,1,4.76185,13.97332Z" transform="translate(-0.03374)"/><path class="cls-1" d="M1.23969,16a.15694.15694,0,0,1-.157-.157V10.95415A.76142.76142,0,0,1,.422,10.17022V4.95445a1.1394,1.1394,0,1,1,2.27879,0v.21531l.94342,1.117,1.1262.01042c.119,0,.23678.00062.35639.00062.28278-.00368.5631-.00123.844.01533h.00062a.72692.72692,0,0,1-.00982,1.45377H3.15841a.1559.1559,0,0,1-.11471-.04969L1.72612,6.30455a.1571.1571,0,1,1,.22941-.21469l1.271,1.363H5.96166a.41282.41282,0,0,0,0-.82564c-.284-.01656-.5631-.01594-.83423-.01533-.12022,0-.24045,0-.35945-.00061L3.56939,6.60021a.15917.15917,0,0,1-.119-.05581L2.42355,5.32863a.15689.15689,0,0,1-.0368-.10121v-.273a.82534.82534,0,1,0-1.65067,0v5.21577a.44334.44334,0,0,0,.449.476h.0546a.15694.15694,0,0,1,.157.157V15.843A.15694.15694,0,0,1,1.23969,16Z" transform="translate(-0.03374)"/><path class="cls-1" d="M14.72474,16H12.75939a1.07344,1.07344,0,0,1-.70173-.28462.78673.78673,0,0,1-.20856-.59623.85889.85889,0,0,1,.91275-.8379h.43429V7.42217l-.27481.295a.16029.16029,0,0,1-.11532.04969H10.004A.72816.72816,0,0,1,9.27649,7.04a.73611.73611,0,0,1,.71523-.72688c.31283-.01349.6269-.01411.941-.01472l1.38752-.01165.94341-1.117V4.95445a1.1397,1.1397,0,0,1,2.2794,0v5.21577a.76142.76142,0,0,1-.66124.78393V15.843A.15655.15655,0,0,1,14.72474,16Zm-1.95185-1.40469a.55918.55918,0,0,0-.60972.53366.48437.48437,0,0,0,.12145.36927.76976.76976,0,0,0,.476.1877H14.5677V10.80325a.15655.15655,0,0,1,.157-.157h.0552a.44368.44368,0,0,0,.449-.476V4.95445a.82564.82564,0,0,0-1.65128,0v.273a.1603.1603,0,0,1-.0368.10121L12.514,6.5444a.15915.15915,0,0,1-.119.05581l-1.46235.01227c-.30916.00062-.61831.00123-.92624.01472A.41835.41835,0,0,0,9.59055,7.04a.41349.41349,0,0,0,.41344.41282h2.73332l.48091-.51464a.149.149,0,0,1,.04539-.04846l.7459-.79988a.15755.15755,0,0,1,.23064.21469l-.73.78087v7.35286a.15655.15655,0,0,1-.157.157h-.58028Z" transform="translate(-0.03374)"/><path class="cls-1" d="M8.33246,6.553H4.73056a.31388.31388,0,0,1-.31406-.31406V2.1604a.31388.31388,0,0,1,.31406-.31406h3.6019a.31388.31388,0,0,1,.31407.31406V6.23892A.31388.31388,0,0,1,8.33246,6.553ZM5.04463,5.92486H8.0184V2.47447H5.04463Z" transform="translate(-0.03374)"/><path class="cls-1" d="M6.97071,3.34611H6.112a.157.157,0,1,1,0-.31406h.85876a.157.157,0,1,1,0,.31406Z" transform="translate(-0.03374)"/></svg>