<?xml version="1.0" encoding="utf-8"?>
<!-- Generator: Adobe Illustrator 26.1.0, SVG Export Plug-In . SVG Version: 6.00 Build 0)  -->
<svg version="1.1" id="Laag_1" xmlns="http://www.w3.org/2000/svg" xmlns:xlink="http://www.w3.org/1999/xlink" x="0px" y="0px"
	 viewBox="0 0 8503.94 8503.94" style="enable-background:new 0 0 8503.94 8503.94;" xml:space="preserve">
<style type="text/css">
	.st0{fill:#FFFFFF;}
</style>
<path class="st0" d="M1775.45,5362.56h381.61v-73.82h-381.61V5362.56L1775.45,5362.56z M2561.69,5613.81h537.93v-68.08h-435.33
	l435.33-552.29v-50.81h-523.56v68.07h419.99l-434.36,552.29V5613.81L2561.69,5613.81z M3837.91,5625.33
	c204.24,0,343.24-162.05,343.24-347.14v-1.88c0-185.09-137.08-345.21-341.31-345.21c-204.24,0-343.29,162.05-343.29,347.09v1.93
	C3496.56,5465.16,3633.68,5625.33,3837.91,5625.33L3837.91,5625.33z M3839.84,5555.32c-153.42,0-264.65-124.68-264.65-277.13v-1.88
	c0-152.45,109.3-275.21,262.72-275.21c153.42,0,264.65,124.64,264.65,277.09v1.93C4102.56,5432.57,3993.26,5555.32,3839.84,5555.32
	L3839.84,5555.32z M4648.11,5613.81h73.82v-550.37l433.4,550.37h60.41v-671.19h-73.82v537.93l-422.84-537.93h-70.97V5613.81
	L4648.11,5613.81z M5712.43,5613.81h489.96v-69.04h-414.21v-234.9h366.28v-69.04h-366.28v-229.17h409.39v-69.04h-485.14V5613.81
	L5712.43,5613.81z M6629.08,5362.56h381.61v-73.82h-381.61V5362.56L6629.08,5362.56z"/>
<path class="st0" d="M1787.53,3688.79c11.57-25.06,17.35-46.27,17.35-61.7c0-23.14-11.57-36.63-26.99-44.35
	c-65.56-25.07-337.41-13.49-482.01-21.21c3.86-202.44,13.49-354.76,13.49-470.44c0-34.71,0-65.55-1.93-94.47
	c71.34-25.07,192.81-52.06,445.38-52.06c40.49,0,48.2-50.12,48.2-90.61c0-79.05-40.49-82.9-40.49-82.9
	c-154.24-52.06-335.48-73.27-509-73.27c-82.91,0-140.75,11.57-181.24,28.92c-65.55,9.64-109.9,50.13-109.9,50.13
	s-25.06,508.99-25.06,983.29c0,416.46,19.28,807.85,90.62,807.85c225.58,0,266.07-356.69,269.93-767.37h1.93
	C1494.47,3800.62,1712.33,3723.5,1787.53,3688.79L1787.53,3688.79z M2317.74,3584.68c0,154.24-88.69,171.6-104.11,175.45
	c7.71-67.48,1.93-133.04,23.14-181.24c9.64-19.28,34.7-38.56,53.99-38.56C2306.17,3540.33,2317.74,3551.9,2317.74,3584.68
	L2317.74,3584.68z M2844.09,3754.35c-28.92,0-65.55,50.13-96.4,104.11c-131.11,227.51-354.76,424.17-478.16,424.17
	c-55.91,0-75.19-104.11-75.19-241.01c0-52.06,3.85-107.97,7.71-163.88c94.47-1.93,229.44-88.69,229.44-300.78
	c0-133.04-129.18-140.75-163.88-140.75c-271.85,0-327.77,408.75-327.77,595.77c0,431.88,217.87,462.73,298.84,462.73
	c264.15,0,499.36-352.83,589.98-568.77c26.99-63.63,40.49-113.75,40.49-142.68C2869.16,3765.91,2859.52,3754.35,2844.09,3754.35
	L2844.09,3754.35z M3139.09,4450.37c0,121.47-36.64,169.67-69.41,169.67c-28.92,0-57.84-36.63-57.84-90.62
	c0-80.97,36.63-148.45,94.48-208.23C3125.59,4367.46,3139.09,4409.88,3139.09,4450.37L3139.09,4450.37z M3102.45,3337.89
	c-92.55,0-366.33,1.93-366.33,254.5c0,173.53,183.16,399.11,302.7,597.7c-98.33,80.98-165.81,181.24-165.81,314.27
	c0,268,129.18,277.64,223.65,277.64c75.2,0,279.57-44.35,279.57-370.19c0-82.9-25.07-163.88-59.77-242.93
	c192.8-111.83,418.38-202.45,487.79-325.84c34.7-63.63,48.2-102.19,48.2-121.47c0-19.28-21.21-28.92-34.7-28.92
	c-25.07,0-40.49,32.78-44.35,38.56c-84.84,133.03-310.42,215.94-516.72,321.99c-106.05-187.02-244.86-354.76-244.86-493.58
	c0-113.75,80.98-131.1,131.11-131.1c23.14,0,38.56,3.86,46.27,3.86c15.42,0,50.13-3.86,50.13-48.2
	C3239.35,3337.89,3102.45,3337.89,3102.45,3337.89L3102.45,3337.89z M4374.97,3133.51c-17.35,0-82.96,9.64-140.79,15.43
	c-53.94,3.86-107.97,5.78-165.81,5.78h-9.59c7.67-65.55,15.42-127.25,26.94-183.16c9.64-55.91,15.47-102.18,15.47-142.67
	c0-163.88-79.1-200.52-146.54-200.52c-55.96,0-106.04,23.14-106.04,23.14c-28.92,0-59.77,202.44-82.95,482
	c-80.93-11.57-161.91-26.99-246.74-46.27c-15.42-1.93-28.97-3.86-38.61-3.86l-13.49,1.93c-11.52,0-34.7,63.63-34.7,80.98
	c0,5.78,1.92,13.5,3.86,17.35c3.9,11.57,21.25,30.85,30.85,36.63c55.91,30.85,161.96,50.13,287.28,57.84
	c-26.95,364.4-46.27,813.64-46.27,1125.98c0,210.16,9.64,358.62,28.92,377.9c30.85,30.85,63.67,42.42,96.45,42.42
	c84.79,0,161.91-88.69,169.62-210.16c17.35-325.84,9.69-896.54,44.35-1334.21c136.89-5.78,268.04-19.28,358.66-44.35
	c13.49,0,26.99-28.92,26.99-53.98C4430.88,3141.22,4401.96,3133.51,4374.97,3133.51L4374.97,3133.51z M4625.57,3172.07
	c-65.55,0-192.81,96.4-192.81,136.89c0,52.06,36.64,79.05,109.9,79.05c57.84,0,127.25-90.62,127.25-158.1
	C4669.91,3200.99,4654.49,3172.07,4625.57,3172.07L4625.57,3172.07z M4401.91,3573.11c0,0-57.84,289.2-57.84,541.78
	c0,196.66,34.7,372.11,160.03,372.11c345.12,0,603.48-611.19,603.48-611.19s26.99-57.84,26.99-98.33c0-15.42-5.78-36.63-30.85-36.63
	c-40.49,0-86.76,65.56-86.76,65.56s-314.27,416.46-358.62,416.46c-28.92,0-32.78-200.51-32.78-387.54v-262.21
	c0-65.55-42.42-90.62-90.62-90.62C4475.18,3482.49,4407.7,3521.05,4401.91,3573.11L4401.91,3573.11z M5121.07,3503.7
	c-84.83,0-86.76,316.2-86.76,350.9v3.86c0,48.2-1.93,109.9-1.93,177.38c0,256.43,17.35,599.62,167.74,599.62
	c165.81,0,439.6-692.17,445.38-701.81c50.13,73.26,146.53,129.18,244.86,129.18c25.07,0,50.13-3.86,73.27-11.57
	c88.69-26.99,133.04-109.9,133.04-167.74c0-26.99-11.57-57.84-38.56-57.84c-28.92,0-73.27,26.99-117.61,57.84
	c-15.43,11.57-32.78,15.43-48.2,15.43c-67.48,0-129.18-80.98-129.18-175.45c0-11.57,1.93-23.14,3.85-36.63
	c38.56-96.4,55.92-144.61,55.92-190.88c0-17.35-1.93-32.78-7.72-48.2c-23.13-63.62-94.47-75.19-150.38-75.19
	c-98.33,0-158.1,65.55-177.38,154.24c-5.78,23.14-9.64,46.28-9.64,69.41c0,21.21,3.86,44.35,7.71,67.48
	c9.64,48.2,25.07,88.69,48.2,121.47c-11.57,25.07-204.37,512.86-264.14,512.86c3.85-34.7,26.99-204.37,26.99-375.97
	C5296.53,3715.78,5263.75,3503.7,5121.07,3503.7L5121.07,3503.7z M6131.37,4020.41c0-277.64,268-439.59,268-439.59
	c-1.93,5.78-1.93,11.57-1.93,17.35c-21.21,98.33-185.09,489.73-244.86,489.73C6139.08,4087.9,6131.37,4068.61,6131.37,4020.41
	L6131.37,4020.41z M7097.32,3690.72c-30.85,0-57.84,44.35-59.77,48.2l-65.55,109.9c-88.69,144.6-223.66,350.9-291.14,350.9
	c-15.42,0-17.35-100.26-17.35-451.16c0-227.51-136.89-287.28-177.38-287.28c-5.79,0-11.57,1.93-17.35,1.93
	c-7.71-7.71-21.21-11.57-40.49-11.57c-123.39,0-456.95,150.39-456.95,599.62c0,235.22,80.98,235.22,140.75,235.22
	c84.83,0,198.59-152.32,275.71-360.54c0,337.41,98.33,501.29,227.51,501.29c165.81,0,364.4-327.77,468.51-522.5
	c0,0,53.99-90.62,53.99-156.17C7137.81,3721.57,7124.31,3690.72,7097.32,3690.72L7097.32,3690.72z M7230.35,2670.79
	c-134.96,686.37-214.01,1141.4-214.01,1430.6c0,318.13,96.4,433.81,321.98,433.81c308.49,0,545.64-605.41,545.64-605.41
	s34.7-88.69,34.7-138.82c0-13.5-3.85-36.63-25.06-36.63c-48.2,0-104.11,115.68-104.11,115.68
	c-102.19,206.3-321.99,474.3-399.1,474.3c-40.49,0-52.06-69.41-52.06-160.03c0-104.11,17.35-237.15,28.92-314.27
	c52.06-377.9,96.4-703.74,96.4-921.61c0-150.38-21.21-250.64-75.19-277.63c-44.35-23.14-75.2-30.85-98.33-30.85
	C7243.85,2639.94,7230.35,2670.79,7230.35,2670.79L7230.35,2670.79z"/>
</svg>
